<svg xmlns="http://www.w3.org/2000/svg" width="32" height="20" viewBox="0 0 32 20"><defs><style>.a{fill:#3c3e43;}</style></defs><path class="a" d="M9.254,6.755a11.9,11.9,0,0,1,2.561.251,5.761,5.761,0,0,1,1.981.813,3.749,3.749,0,0,1,1.28,1.494,5.328,5.328,0,0,1,.454,2.307,4.339,4.339,0,0,1-.676,2.48,4.886,4.886,0,0,1-2,1.627,4.7,4.7,0,0,1,2.7,1.827,5.472,5.472,0,0,1,.887,3.147,5.512,5.512,0,0,1-.547,2.574,4.935,4.935,0,0,1-1.547,1.8A6.79,6.79,0,0,1,12.113,26.1a9.76,9.76,0,0,1-2.548.339H0V6.764H9.254ZM22.6,22.973a3.481,3.481,0,0,0,2.526.857,3.484,3.484,0,0,0,2.041-.6,2.455,2.455,0,0,0,1.04-1.254h3.452a6.492,6.492,0,0,1-2.534,3.667,7.318,7.318,0,0,1-4.108,1.107,8.177,8.177,0,0,1-3.031-.533,6.6,6.6,0,0,1-2.294-1.52,6.8,6.8,0,0,1-1.437-2.36,8.748,8.748,0,0,1-.5-3.027,8.108,8.108,0,0,1,.538-2.974A6.922,6.922,0,0,1,22.1,12.361a7.149,7.149,0,0,1,2.961-.577,6.725,6.725,0,0,1,3.175.7,6.4,6.4,0,0,1,2.214,1.867A7.425,7.425,0,0,1,31.7,17.041a10.757,10.757,0,0,1,.28,3.174H21.727a4.041,4.041,0,0,0,.947,2.754l-.107.04Zm-13.659.067a5.617,5.617,0,0,0,1.208-.124,3.093,3.093,0,0,0,1.018-.4,1.976,1.976,0,0,0,.694-.777,2.733,2.733,0,0,0,.253-1.28,2.588,2.588,0,0,0-.854-2.16A3.674,3.674,0,0,0,9,17.657H4.322v5.4H8.937v-.04Zm18.15-7.534a2.936,2.936,0,0,0-2.21-.789,3.308,3.308,0,0,0-1.555.317,2.874,2.874,0,0,0-.987.787,2.776,2.776,0,0,0-.523,1,4.674,4.674,0,0,0-.18.947h6.352a3.809,3.809,0,0,0-.907-2.254v.013ZM8.7,14.685a3.107,3.107,0,0,0,1.9-.549,2.052,2.052,0,0,0,.739-1.784,2.512,2.512,0,0,0-.24-1.128,1.949,1.949,0,0,0-.667-.683,2.825,2.825,0,0,0-.96-.343,5.905,5.905,0,0,0-1.12-.1H4.308v4.587H8.7ZM20.832,8.073h7.96v1.939h-7.96V8.071Z" transform="translate(0 -6.755)"/></svg>