<svg xmlns="http://www.w3.org/2000/svg" width="24" height="24" viewBox="0 0 24 24"><defs><style>.a{fill:#3c3e43;}</style></defs><path class="a" d="M193.346,184.994a6.143,6.143,0,1,0,.019,0Zm0,10.155a4,4,0,1,1,4-4h0A4.008,4.008,0,0,1,193.346,195.149Zm7.839-10.406a1.432,1.432,0,1,1,0-.007Zm4.074,1.459a6.647,6.647,0,0,0-6.964-6.966c-1.981-.113-7.921-.113-9.9,0a6.638,6.638,0,0,0-6.965,6.961c-.113,1.981-.113,7.923,0,9.9a6.647,6.647,0,0,0,6.965,6.967c1.98.112,7.92.112,9.9,0a6.647,6.647,0,0,0,6.964-6.967c.113-1.98.113-7.916,0-9.9ZM202.7,198.224a4.044,4.044,0,0,1-2.284,2.285c-1.58.627-5.331.483-7.073.483s-5.5.139-7.074-.483a4.047,4.047,0,0,1-2.284-2.285c-.627-1.58-.482-5.332-.482-7.075s-.14-5.5.482-7.076a4.05,4.05,0,0,1,2.284-2.285c1.58-.627,5.332-.482,7.074-.482s5.5-.14,7.073.482a4.047,4.047,0,0,1,2.284,2.285c.627,1.58.483,5.333.483,7.076S203.328,196.649,202.7,198.224Z" transform="translate(-181.344 -179.151)"/></svg>